<svg xmlns="http://www.w3.org/2000/svg" viewBox="0 0 160 220"><g id="item">
    <ellipse cx="80" cy="193" rx="45" ry="5" fill="#0f172a" opacity="0.08"/>
    <path d="M38 38V186a42 8 0 0 0 84 0V38z" fill="#c3cad3"/>
    <path d="M104 38h18v148a42 8 0 0 1-18 6.6z" fill="#98a1ac"/>
    <path d="M45 44h8v140h-8z" fill="#e7ecf1"/>
    <path d="M39.3 44a40.7 7.8 0 0 0 81.4 0M39.3 171a40.7 7.8 0 0 0 81.4 0M39.3 178a40.7 7.8 0 0 0 81.4 0" fill="none" stroke="#98a1ac" stroke-width="2.5"/>
    <ellipse cx="80" cy="38" rx="42" ry="9" fill="#e7ecf1"/>
    <ellipse cx="80" cy="38.5" rx="36" ry="7" fill="#98a1ac"/>
    <ellipse cx="80" cy="39.8" rx="35" ry="5.8" fill="#c3cad3"/>
    <ellipse cx="80" cy="40" rx="24" ry="3.6" fill="none" stroke="#aeb7c1" stroke-width="2"/>
  </g><g id="label">
    <path d="M38 52a42 8 0 0 0 84 0V162a42 8 0 0 1-84 0z" fill="#f7efe2"/>
  </g><g id="brand">
    <path d="M38 52a42 8 0 0 0 84 0V162a42 8 0 0 1-84 0z" fill="#f5bf24"/>
    <circle cx="80" cy="102" r="36" fill="#fcd969"/>
    <path d="M104 58.6A42 8 0 0 0 122 52V162a42 8 0 0 1-18 6.6z" fill="#d99f12"/>
    <path d="M38 112q8-6 14 0t14 4 14-4 14 2 14-2 14 2V162a42 8 0 0 1-84 0z" fill="#9c1027"/>
    <path d="M104 112.5q9 1.5 18-.5V162a42 8 0 0 1-18 6.6z" fill="#740b1d"/>
    <path d="M44 126q12-6 26-2M84 128q8-3 14-1" fill="none" stroke="#e8667a" stroke-width="3.5" stroke-linecap="round"/>
    <circle cx="54" cy="146" r="8" fill="#c21d34"/>
    <circle cx="51.5" cy="143" r="2.2" fill="#f59a9a"/>
    <circle cx="100" cy="148" r="8" fill="#c21d34"/>
    <circle cx="97.5" cy="145" r="2.2" fill="#f59a9a"/>
    <path d="M64 88C66 81 72 76 80 72M96 88C94 81 88 76 80 72M80 110V72" fill="none" stroke="#3f6f22" stroke-width="2.5" stroke-linecap="round"/>
    <circle cx="64" cy="100" r="14" fill="#d42a3a"/>
    <path d="M78 100a14 14 0 0 1-23.9 9.9a17.5 17.5 0 0 0 23.9-9.9z" fill="#9e1a2b"/>
    <circle cx="58.5" cy="94" r="3.6" fill="#fbb3b3"/>
    <circle cx="96" cy="100" r="14" fill="#d42a3a"/>
    <path d="M110 100a14 14 0 0 1-23.9 9.9a17.5 17.5 0 0 0 23.9-9.9z" fill="#9e1a2b"/>
    <circle cx="90.5" cy="94" r="3.6" fill="#fbb3b3"/>
    <circle cx="80" cy="124" r="14" fill="#d42a3a"/>
    <path d="M94 124a14 14 0 0 1-23.9 9.9a17.5 17.5 0 0 0 23.9-9.9z" fill="#9e1a2b"/>
    <circle cx="74.5" cy="118" r="3.6" fill="#fbb3b3"/>
  </g></svg>
