<svg xmlns="http://www.w3.org/2000/svg" viewBox="0 0 160 220"><g id="item">
    <ellipse cx="80" cy="195" rx="40" ry="5" fill="#0f172a" opacity="0.08"/>
    <path d="M70 50Q50 56 47 78V100C47 108 55 110 55 118C55 126 45 128 45 136V186a6 6 0 0 0 6 6H109a6 6 0 0 0 6-6V136C115 128 105 126 105 118C105 110 113 108 113 100V78Q110 56 90 50z" fill="#e4eef3"/>
    <path d="M88 50h2Q110 56 113 78V100C113 108 105 110 105 118C105 126 115 128 115 136V186a6 6 0 0 1-6 6H104z" fill="#bed2db"/>
    <path d="M57 62H103Q109 66 110 80V100C110 106 102 110 102 118C102 126 112 130 112 136V185a4 4 0 0 1-4 4H52a4 4 0 0 1-4-4V136C48 130 58 126 58 118C58 110 50 106 50 100V80Q51 66 57 62z" fill="#e6b422"/>
    <path d="M94 62H103Q109 66 110 80V100C110 106 102 110 102 118C102 126 112 130 112 136V185a4 4 0 0 1-4 4H100V136C100 128 94 126 94 118C94 110 100 106 100 100V80Q100 68 94 62z" fill="#c08d12"/>
    <path d="M57 68Q53 72 53 82V98C53 104 58 108 59 112L56 113C52 108 50 104 50 98V82Q50 70 57 68z" fill="#f7da6a"/>
    <path d="M57 62H103" fill="none" stroke="#f3cf5a" stroke-width="2" stroke-linecap="round"/>
    <path d="M50 140v40" fill="none" stroke="#f6fbfd" stroke-width="3" stroke-linecap="round"/>
    <path d="M70 42h20v9H70z" fill="#e4eef3"/>
    <rect x="66" y="40" width="28" height="5" rx="2" fill="#bed2db"/>
    <path d="M72 22h16a3 3 0 0 1 3 3v15H69V25a3 3 0 0 1 3-3z" fill="#2f7d3a"/>
    <path d="M84 22h4a3 3 0 0 1 3 3v15h-7z" fill="#205e29"/>
    <path d="M71 26h3v13h-3z" fill="#5aa65a"/>
    <path d="M70 31h20M70 35.5h20" fill="none" stroke="#205e29" stroke-width="1.5"/>
  </g><g id="label">
    <rect x="49" y="134" width="62" height="50" rx="4" fill="#f7efe2"/>
  </g><g id="brand-cg">
    <rect x="49" y="134" width="62" height="50" rx="4" fill="#ffffff"/>
    <path d="M53 134h54a4 4 0 0 1 4 4v6H49v-6a4 4 0 0 1 4-4z" fill="#15803d"/>
    <path d="M49 144h62v2H49z" fill="#facc15"/>
    <path d="M55 136h9l4 3-4 3h-9a1 1 0 0 1-1-1v-4a1 1 0 0 1 1-1z" fill="#ffffff"/>
    <circle cx="57" cy="139" r="1" fill="#15803d"/>
    <path d="M73.7,153.7C82.3,153.1 82.3,158.9 73.7,158.3C81.4,162.2 78.5,167.1 71.4,162.4C76.1,169.5 71.2,172.4 67.3,164.7C67.9,173.3 62.1,173.3 62.7,164.7C58.8,172.4 53.9,169.5 58.6,162.4C51.5,167.1 48.6,162.2 56.3,158.3C47.7,158.9 47.7,153.1 56.3,153.7C48.6,149.8 51.5,144.9 58.6,149.6C53.9,142.5 58.8,139.6 62.7,147.3C62.1,138.7 67.9,138.7 67.3,147.3C71.2,139.6 76.1,142.5 71.4,149.6C78.5,144.9 81.4,149.8 73.7,153.7z" fill="#f2bb32"/>
    <circle cx="65" cy="156" r="8" fill="#6b3a1c"/>
    <path d="M94 145C96 151.6 105 161.3 105 169A11 11 0 0 1 83 169C83 161.3 92 151.6 94 145z" fill="#ecb21c"/>
    <path d="M94 145C96 151.6 105 161.3 105 169A11 11 0 0 1 94 180C100.1 169 97.3 156 94 145z" fill="#c98a0c"/>
    <path d="M55 178h50v3H55z" fill="#15803d"/>
  </g></svg>
