<svg xmlns="http://www.w3.org/2000/svg" viewBox="0 0 160 220">
  <g id="item">
    <ellipse cx="80" cy="196" rx="52" ry="5" fill="#0f172a" opacity="0.08"/>
    <path d="M44 24H116Q122 24 122 30V60Q124 120 128 176Q129 190 120 194H40Q31 190 32 176Q36 120 38 60V30Q38 24 44 24z" fill="#aab4be"/>
    <path d="M108 24H116Q122 24 122 30V60Q124 120 128 176Q129 190 120 194H114Q118 186 116 176Q112 120 108 60z" fill="#8c96a1"/>
    <path d="M41.5 44h3.5Q42 120 38.5 178h-3Q39 120 41.5 44z" fill="#d7dee4"/>
    <path d="M44 24H116Q122 24 122 30V40H38V30Q38 24 44 24z" fill="#c3cbd3"/>
    <path d="M108 24H116Q122 24 122 30V40H108z" fill="#a3adb7"/>
    <path d="M72 29h16a2.5 2.5 0 0 1 0 5H72a2.5 2.5 0 0 1 0-5z" fill="#7f8994"/>
    <path d="M38.5 46H121.5" fill="none" stroke="#7f8994" stroke-width="3"/>
    <path d="M38.5 49.5H121.5" fill="none" stroke="#d7dee4" stroke-width="1.5"/>
    <path d="M32.3 183.5Q80 158 127.7 183.5Q126.3 191.2 120 194H40Q33.7 191.2 32.3 183.5z" fill="#c3cbd3"/>
    <path d="M33 183Q80 158 127 183" fill="none" stroke="#7f8994" stroke-width="2" stroke-linecap="round"/>
  </g>
  <g id="label">
    <rect x="42" y="56" width="76" height="108" rx="5" fill="#f7efe2"/>
  </g>
  <g id="brand">
    <rect x="42" y="56" width="76" height="108" rx="5" fill="#c8312b"/>
    <circle cx="80" cy="110" r="36" fill="#f7e6c4"/>
    <path d="M42 144q20-10 40-2t36-6V159a5 5 0 0 1-5 5H47a5 5 0 0 1-5-5z" fill="#8f1f1b"/>
    <path d="M67.5 107.5C67.5 97 76.5 90 79 85.5Q79.8 82.5 83 82Q81.6 84.5 81.8 86.5C84 90 92.5 97 92.5 107.5Q80 110 67.5 107.5z" fill="#6b3d22"/>
    <path d="M81.8 86.5C84 90 92.5 97 92.5 107.5Q87.5 109.3 83 109.5C85 100 82.5 92 81.8 86.5z" fill="#4a2914"/>
    <path d="M69.9 105C70.1 97 76 91 78.8 87.5C78.5 92.5 74.5 97.5 73.9 105.5z" fill="#a8724a"/>
    <path d="M56 122.5C56 112 65 105 67.5 100.5Q68.3 97.5 71.5 97Q70.1 99.5 70.3 101.5C72.5 105 81 112 81 122.5Q68.5 125 56 122.5zM79 122.5C79 112 88 105 90.5 100.5Q91.3 97.5 94.5 97Q93.1 99.5 93.3 101.5C95.5 105 104 112 104 122.5Q91.5 125 79 122.5z" fill="#6b3d22"/>
    <path d="M70.3 101.5C72.5 105 81 112 81 122.5Q76 124.3 71.5 124.5C73.5 115 71 107 70.3 101.5zM93.3 101.5C95.5 105 104 112 104 122.5Q99 124.3 94.5 124.5C96.5 115 94 107 93.3 101.5z" fill="#4a2914"/>
    <path d="M58.4 120C58.6 112 64.5 106 67.3 102.5C67 107.5 63 112.5 62.4 120.5zM81.4 120C81.6 112 87.5 106 90.3 102.5C90 107.5 86 112.5 85.4 120.5z" fill="#a8724a"/>
    <path d="M44.5 137.5C44.5 127 53.5 120 56 115.5Q56.8 112.5 60 112Q58.6 114.5 58.8 116.5C61 120 69.5 127 69.5 137.5Q57 140 44.5 137.5zM67.5 138C67.5 127.5 76.5 120.5 79 116Q79.8 113 83 112.5Q81.6 115 81.8 117C84 120.5 92.5 127.5 92.5 138Q80 140.5 67.5 138zM90.5 137.5C90.5 127 99.5 120 102 115.5Q102.8 112.5 106 112Q104.6 114.5 104.8 116.5C107 120 115.5 127 115.5 137.5Q103 140 90.5 137.5z" fill="#6b3d22"/>
    <path d="M58.8 116.5C61 120 69.5 127 69.5 137.5Q64.5 139.3 60 139.5C62 130 59.5 122 58.8 116.5zM81.8 117C84 120.5 92.5 127.5 92.5 138Q87.5 139.8 83 140C85 130.5 82.5 122.5 81.8 117zM104.8 116.5C107 120 115.5 127 115.5 137.5Q110.5 139.3 106 139.5C108 130 105.5 122 104.8 116.5z" fill="#4a2914"/>
    <path d="M46.9 135C47.1 127 53 121 55.8 117.5C55.5 122.5 51.5 127.5 50.9 135.5zM69.9 135.5C70.1 127.5 76 121.5 78.8 118C78.5 123 74.5 128 73.9 136zM92.9 135C93.1 127 99 121 101.8 117.5C101.5 122.5 97.5 127.5 96.9 135.5z" fill="#a8724a"/>

  </g>
  <g id="brand-cg">
    <rect x="42" y="56" width="76" height="108" rx="5" fill="#ffffff"/>
    <path d="M47 56H113a5 5 0 0 1 5 5V70H42V61a5 5 0 0 1 5-5z" fill="#15803d"/>
    <path d="M42 70h76v2H42z" fill="#facc15"/>
    <path d="M48 60h9l4 3-4 3h-9a1 1 0 0 1-1-1v-4a1 1 0 0 1 1-1z" fill="#ffffff"/>
    <circle cx="50" cy="63" r="1" fill="#15803d"/>
    <path d="M67.5 112.5C67.5 102 76.5 95 79 90.5Q79.8 87.5 83 87Q81.6 89.5 81.8 91.5C84 95 92.5 102 92.5 112.5Q80 115 67.5 112.5z" fill="#6b3d22"/>
    <path d="M81.8 91.5C84 95 92.5 102 92.5 112.5Q87.5 114.3 83 114.5C85 105 82.5 97 81.8 91.5z" fill="#4a2914"/>
    <path d="M69.9 110C70.1 102 76 96 78.8 92.5C78.5 97.5 74.5 102.5 73.9 110.5z" fill="#a8724a"/>
    <path d="M56 127.5C56 117 65 110 67.5 105.5Q68.3 102.5 71.5 102Q70.1 104.5 70.3 106.5C72.5 110 81 117 81 127.5Q68.5 130 56 127.5zM79 127.5C79 117 88 110 90.5 105.5Q91.3 102.5 94.5 102Q93.1 104.5 93.3 106.5C95.5 110 104 117 104 127.5Q91.5 130 79 127.5z" fill="#6b3d22"/>
    <path d="M70.3 106.5C72.5 110 81 117 81 127.5Q76 129.3 71.5 129.5C73.5 120 71 112 70.3 106.5zM93.3 106.5C95.5 110 104 117 104 127.5Q99 129.3 94.5 129.5C96.5 120 94 112 93.3 106.5z" fill="#4a2914"/>
    <path d="M58.4 125C58.6 117 64.5 111 67.3 107.5C67 112.5 63 117.5 62.4 125.5zM81.4 125C81.6 117 87.5 111 90.3 107.5C90 112.5 86 117.5 85.4 125.5z" fill="#a8724a"/>
    <path d="M44.5 142.5C44.5 132 53.5 125 56 120.5Q56.8 117.5 60 117Q58.6 119.5 58.8 121.5C61 125 69.5 132 69.5 142.5Q57 145 44.5 142.5zM67.5 143C67.5 132.5 76.5 125.5 79 121Q79.8 118 83 117.5Q81.6 120 81.8 122C84 125.5 92.5 132.5 92.5 143Q80 145.5 67.5 143zM90.5 142.5C90.5 132 99.5 125 102 120.5Q102.8 117.5 106 117Q104.6 119.5 104.8 121.5C107 125 115.5 132 115.5 142.5Q103 145 90.5 142.5z" fill="#6b3d22"/>
    <path d="M58.8 121.5C61 125 69.5 132 69.5 142.5Q64.5 144.3 60 144.5C62 135 59.5 127 58.8 121.5zM81.8 122C84 125.5 92.5 132.5 92.5 143Q87.5 144.8 83 145C85 135.5 82.5 127.5 81.8 122zM104.8 121.5C107 125 115.5 132 115.5 142.5Q110.5 144.3 106 144.5C108 135 105.5 127 104.8 121.5z" fill="#4a2914"/>
    <path d="M46.9 140C47.1 132 53 126 55.8 122.5C55.5 127.5 51.5 132.5 50.9 140.5zM69.9 140.5C70.1 132.5 76 126.5 78.8 123C78.5 128 74.5 133 73.9 141zM92.9 140C93.1 132 99 126 101.8 122.5C101.5 127.5 97.5 132.5 96.9 140.5z" fill="#a8724a"/>
    <path d="M48 158h64v3H48z" fill="#15803d"/>
  </g>
</svg>
