<svg xmlns="http://www.w3.org/2000/svg" viewBox="0 0 160 220">
  <g id="item">
    <ellipse cx="80" cy="195" rx="59" ry="5" fill="#0f172a" opacity="0.08"/>
    <path d="M36 41H124C130 63 137 74 137 110S130 157 124 179H36C30 157 23 146 23 110S30 63 36 41z" fill="#aab4be"/>
    <path d="M109 41H124C130 63 137 74 137 110S130 157 124 179H109C115 157 122 146 122 110S115 63 109 41z" fill="#8c96a1"/>
    <path d="M39 57Q15 110 39 163L43 163Q23 110 43 57z" fill="#d7dee4"/>
    <path d="M36 41H124Q80 55 36 41zM36 179Q80 169 124 179z" fill="#8c96a1"/>
    <path d="M34 42V29L38 26L41.5 29L45.5 26L49.5 29L53 26L57 29L61 26L64.5 29L68.5 26L72.5 29L76 26L80 29L84 26L87.5 29L91.5 26L95.5 29L99 26L103 29L107 26L110.5 29L114.5 26L118.5 29L122 26L126 29V42zM34 178H126V191L122 194L118.5 191L114.5 194L110.5 191L107 194L103 191L99 194L95.5 191L91.5 194L87.5 191L84 194L80 191L76 194L72.5 191L68.5 194L64.5 191L61 194L57 191L53 194L49.5 191L45.5 194L41.5 191L38 194L34 191z" fill="#c3cbd3"/>
    <path d="M110.5 42V29L114.5 26L118.5 29L122 26L126 29V42zM110.5 178H126V191L122 194L118.5 191L114.5 194L110.5 191z" fill="#a3adb7"/>
    <path d="M41 31v7M56.5 31v7M72 31v7M88 31v7M103.5 31v7M119 31v7M41 182v7M56.5 182v7M72 182v7M88 182v7M103.5 182v7M119 182v7" fill="none" stroke="#7f8994" stroke-width="3" stroke-linecap="round" stroke-linejoin="round"/>
    <path d="M39 44q7 8 5 20M121 44q-7 8 -5 20M39 176q7 -8 5 -20M121 176q-7 -8 -5 -20M28 128q5 7 0 14M132 80q-5 7 0 14" fill="none" stroke="#8c96a1" stroke-width="2" stroke-linecap="round" stroke-linejoin="round"/>
  </g>
  <g id="label">
    <path d="M42 55H118a4 4 0 0 1 4 4V71C122 88.5 127 98.5 127 120C127 141.5 122 147.5 122 165a4 4 0 0 1 -4 4H42a4 4 0 0 1 -4 -4C38 147.5 33 141.5 33 120C33 98.5 38 88.5 38 71V59a4 4 0 0 1 4 -4z" fill="#f7efe2"/>
  </g>
  <g id="brand">
    <path d="M42 55H118a4 4 0 0 1 4 4V71C122 88.5 127 98.5 127 120C127 141.5 122 147.5 122 165a4 4 0 0 1 -4 4H42a4 4 0 0 1 -4 -4C38 147.5 33 141.5 33 120C33 98.5 38 88.5 38 71V59a4 4 0 0 1 4 -4z" fill="#c62f2b"/>
    <path d="M38 64L122 88V108L38 84z" fill="#a3221f"/>
    <path d="M33.2 124C50 116 64 130 82 125S110 116 126.5 120C125.5 143 122 150 122 165a4 4 0 0 1 -4 4H42a4 4 0 0 1 -4 -4C38 150 34 143 33.2 124z" fill="#f6e3b8"/>
    <path d="M35.5 150C52 146 70 156 88 152S112 146 123.5 149C122.5 156 122 159 122 165a4 4 0 0 1 -4 4H42a4 4 0 0 1 -4 -4C38 159 36.5 155 35.5 150z" fill="#e8cf98"/>
    <path d="M40 75Q42.5 69.2 47.2 73.5Q49.7 67.6 54.4 72Q56.9 66.1 61.6 70.4Q64.1 64.6 68.8 68.9Q71.3 63.1 76 67.4Q81.8 69.9 77.5 74.6Q83.4 77.1 79 81.8Q84.9 84.3 80.6 89Q86.4 91.5 82.1 96.2Q87.9 98.7 83.6 103.4Q81.1 109.2 76.4 104.9Q73.9 110.8 69.2 106.4Q66.7 112.3 62 108Q59.5 113.8 54.8 109.5Q52.3 115.3 47.6 111Q41.8 108.5 46.1 103.8Q40.2 101.3 44.6 96.6Q38.7 94.1 43 89.4Q37.2 86.9 41.5 82.2Q35.7 79.7 40 75z" fill="#7a4a12"/>
    <path d="M40.8 74.9Q43.1 69.1 47.5 73.5Q49.7 67.7 54.1 72.1Q56.4 66.3 60.8 70.7Q63 64.9 67.4 69.3Q69.7 63.5 74.1 67.8Q79.9 70.1 75.5 74.5Q81.3 76.7 76.9 81.1Q82.7 83.4 78.3 87.8Q84.1 90 79.7 94.4Q85.5 96.7 81.2 101.1Q78.9 106.9 74.5 102.5Q72.3 108.3 67.9 103.9Q65.6 109.7 61.2 105.3Q59 111.1 54.6 106.7Q52.3 112.5 47.9 108.2Q42.1 105.9 46.5 101.5Q40.7 99.3 45.1 94.9Q39.3 92.6 43.7 88.2Q37.9 86 42.3 81.6Q36.5 79.3 40.8 74.9z" fill="#c98a2a"/>
    <path d="M56.2 78.5L62.8 77.1Q70.4 75.5 72.1 83.2L73.5 89.8Q75.1 97.4 67.4 99.1L60.8 100.5Q53.2 102.1 51.5 94.4L50.1 87.8Q48.5 80.2 56.2 78.5z" fill="#e0b256"/>
    <path d="M56.2 78L60.1 77.2Q67.8 75.6 69.4 83.2L70.2 87.1Q71.8 94.8 64.2 96.4L60.3 97.2Q52.6 98.8 51 91.2L50.2 87.3Q48.6 79.6 56.2 78z" fill="#f8e2a4"/>
    <ellipse cx="55.4" cy="84.4" rx="4.3" ry="2.2" transform="rotate(-57 55.4 84.4)" fill="#fff6d8"/>
    <path d="M86.4 66.9Q91.2 62.7 93.5 68.7Q98.4 64.5 100.7 70.5Q105.5 66.3 107.8 72.2Q112.7 68.1 115 74Q119.8 69.9 122.1 75.8Q126.3 80.6 120.3 82.9Q124.5 87.8 118.5 90.1Q122.7 94.9 116.8 97.2Q120.9 102.1 115 104.4Q119.1 109.2 113.2 111.5Q108.4 115.7 106.1 109.7Q101.2 113.9 98.9 107.9Q94.1 112.1 91.8 106.2Q86.9 110.3 84.6 104.4Q79.8 108.5 77.5 102.6Q73.3 97.8 79.3 95.5Q75.1 90.6 81.1 88.3Q76.9 83.5 82.8 81.2Q78.7 76.3 84.6 74Q80.5 69.2 86.4 66.9z" fill="#7a4a12"/>
    <path d="M86.6 67.4Q91.2 63.2 93.2 69Q97.8 64.8 99.8 70.7Q104.4 66.5 106.4 72.3Q111 68.1 113 74Q117.6 69.7 119.6 75.6Q123.8 80.2 118 82.2Q122.2 86.8 116.3 88.8Q120.5 93.4 114.7 95.4Q118.9 100 113 102Q117.3 106.6 111.4 108.6Q106.8 112.8 104.8 107Q100.2 111.2 98.2 105.3Q93.6 109.5 91.6 103.7Q87 107.9 85 102Q80.4 106.3 78.4 100.4Q74.2 95.8 80 93.8Q75.8 89.2 81.7 87.2Q77.5 82.6 83.3 80.6Q79.1 76 85 74Q80.7 69.4 86.6 67.4z" fill="#c98a2a"/>
    <path d="M99.2 77.1L105.8 78.7Q113.4 80.6 111.5 88.2L109.9 94.8Q108 102.4 100.4 100.5L93.8 98.9Q86.2 97 88.1 89.4L89.7 82.8Q91.6 75.2 99.2 77.1z" fill="#e0b256"/>
    <path d="M98.7 77.2L102.5 78.1Q110.1 80 108.2 87.7L107.3 91.5Q105.4 99.1 97.7 97.2L93.9 96.3Q86.3 94.4 88.2 86.7L89.1 82.9Q91 75.3 98.7 77.2z" fill="#f8e2a4"/>
    <ellipse cx="95.6" cy="82.3" rx="4.3" ry="2.2" transform="rotate(-31 95.6 82.3)" fill="#fff6d8"/>
    <path d="M52.9 107.4Q57.3 102.5 61 108Q65.4 103.1 69.2 108.6Q73.6 103.7 77.3 109.1Q81.7 104.2 85.4 109.7Q89.9 104.8 93.6 110.3Q98.5 114.7 93 118.4Q97.9 122.8 92.4 126.6Q97.3 131 91.9 134.7Q96.8 139.1 91.3 142.8Q96.2 147.3 90.7 151Q86.3 155.9 82.6 150.4Q78.2 155.3 74.4 149.8Q70 154.7 66.3 149.3Q61.9 154.2 58.2 148.7Q53.7 153.6 50 148.1Q45.1 143.7 50.6 140Q45.7 135.6 51.2 131.8Q46.3 127.4 51.7 123.7Q46.8 119.3 52.3 115.6Q47.4 111.1 52.9 107.4z" fill="#7a4a12"/>
    <path d="M53.4 107.7Q57.5 102.8 61 108.3Q65.1 103.3 68.5 108.8Q72.7 103.9 76.1 109.3Q80.3 104.4 83.7 109.8Q87.9 104.9 91.3 110.4Q96.2 114.5 90.7 118Q95.7 122.1 90.2 125.5Q95.1 129.7 89.7 133.1Q94.6 137.3 89.2 140.7Q94.1 144.9 88.6 148.3Q84.5 153.2 81 147.7Q76.9 152.7 73.5 147.2Q69.3 152.1 65.9 146.7Q61.7 151.6 58.3 146.2Q54.1 151.1 50.7 145.6Q45.8 141.5 51.3 138Q46.3 133.9 51.8 130.5Q46.9 126.3 52.3 122.9Q47.4 118.7 52.8 115.3Q47.9 111.1 53.4 107.7z" fill="#c98a2a"/>
    <path d="M68.9 116L76.4 116.6Q85.2 117.2 84.6 125.9L84 133.4Q83.4 142.2 74.7 141.6L67.2 141Q58.4 140.4 59 131.7L59.6 124.2Q60.2 115.4 68.9 116z" fill="#e0b256"/>
    <path d="M68.6 115.9L73.3 116.3Q82.1 116.9 81.5 125.6L81.1 130.3Q80.5 139.1 71.8 138.5L67.1 138.1Q58.3 137.5 58.9 128.8L59.3 124.1Q59.9 115.3 68.6 115.9z" fill="#f8e2a4"/>
    <ellipse cx="66.1" cy="122.4" rx="4.8" ry="2.5" transform="rotate(-41 66.1 122.4)" fill="#fff6d8"/>
    <circle cx="107" cy="149" r="11" fill="#a8261c"/>
    <circle cx="105.5" cy="147.5" r="9.5" fill="#e04a32"/>
    <ellipse cx="101.5" cy="144" rx="3.2" ry="2" transform="rotate(-40 101.5 144)" fill="#f59a80"/>
    <path d="M101 138.5q3-5 6-1q3-4 6 1q-3 2-6 0q-3 2-6 0z" fill="#2f7d3a"/>
  </g>
  <g id="brand-cg">
    <path d="M42 55H118a4 4 0 0 1 4 4V71C122 88.5 127 98.5 127 120C127 141.5 122 147.5 122 165a4 4 0 0 1 -4 4H42a4 4 0 0 1 -4 -4C38 147.5 33 141.5 33 120C33 98.5 38 88.5 38 71V59a4 4 0 0 1 4 -4z" fill="#ffffff"/>
    <path d="M42 55H118a4 4 0 0 1 4 4V69H38V59a4 4 0 0 1 4 -4z" fill="#15803d"/>
    <path d="M38 69h84v2H38z" fill="#facc15"/>
    <path d="M44 59h9l4 3-4 3h-9a1 1 0 0 1-1-1v-4a1 1 0 0 1 1-1z" fill="#ffffff"/>
    <circle cx="46" cy="62" r="1" fill="#15803d"/>
    <path d="M39.5 126Q50 112 64 118T88 114T120.5 120Q122 140 116 152Q111 160 100 160H58Q45 160 41 150Q38 140 39.5 126z" fill="#d33a2a"/>
    <path d="M40.5 146Q56 141 80 147T120 143Q117 152 112 156Q107 160 100 160H58Q47 160 43 154z" fill="#a8261c"/>
    <path d="M44.2 84.4Q46.1 78.7 50.1 83.2Q51.9 77.5 55.9 82Q57.8 76.2 61.8 80.7Q63.7 75 67.7 79.5Q69.5 73.7 73.6 78.2Q79.3 80.1 74.8 84.1Q80.5 85.9 76 89.9Q81.8 91.8 77.3 95.8Q83 97.7 78.5 101.7Q84.3 103.5 79.8 107.6Q77.9 113.3 73.9 108.8Q72.1 114.5 68.1 110Q66.2 115.8 62.2 111.3Q60.3 117 56.3 112.5Q54.5 118.3 50.4 113.8Q44.7 111.9 49.2 107.9Q43.5 106.1 48 102.1Q42.2 100.2 46.7 96.2Q41 94.3 45.5 90.3Q39.7 88.5 44.2 84.4z" fill="#c98a2a"/>
    <path d="M57 86.9L62.8 85.7Q69.6 84.3 71.1 91L72.3 96.8Q73.7 103.6 67 105.1L61.2 106.3Q54.4 107.7 52.9 101L51.7 95.2Q50.3 88.4 57 86.9z" fill="#f6dc98"/>
    <ellipse cx="57.1" cy="92.8" rx="3.8" ry="2" transform="rotate(-57 57.1 92.8)" fill="#fff6d8"/>
    <path d="M87.1 77.8Q91.2 73.5 92.9 79.3Q97.1 74.9 98.7 80.7Q102.9 76.4 104.5 82.2Q108.7 77.9 110.4 83.6Q114.5 79.3 116.2 85.1Q120.5 89.2 114.7 90.9Q119.1 95.1 113.3 96.7Q117.6 100.9 111.8 102.5Q116.1 106.7 110.4 108.4Q114.7 112.5 108.9 114.2Q104.8 118.5 103.1 112.7Q98.9 117.1 97.3 111.3Q93.1 115.6 91.5 109.8Q87.3 114.1 85.6 108.4Q81.5 112.7 79.8 106.9Q75.5 102.8 81.3 101.1Q76.9 96.9 82.7 95.3Q78.4 91.1 84.2 89.5Q79.9 85.3 85.6 83.6Q81.3 79.5 87.1 77.8z" fill="#c98a2a"/>
    <path d="M97.5 85.7L103.3 87.1Q110 88.8 108.3 95.5L106.9 101.3Q105.2 108 98.5 106.3L92.7 104.9Q86 103.2 87.7 96.5L89.1 90.7Q90.8 84 97.5 85.7z" fill="#f6dc98"/>
    <ellipse cx="95" cy="91" rx="3.8" ry="2" transform="rotate(-31 95 91)" fill="#fff6d8"/>
    <path d="M64.7 111.4Q68.3 106.4 71.3 111.8Q74.9 106.9 77.9 112.3Q81.5 107.4 84.4 112.8Q88.1 107.8 91 113.2Q94.7 108.3 97.6 113.7Q102.6 117.3 97.2 120.3Q102.1 123.9 96.7 126.9Q101.6 130.5 96.2 133.4Q101.2 137.1 95.8 140Q100.7 143.7 95.3 146.6Q91.7 151.6 88.7 146.2Q85.1 151.1 82.1 145.7Q78.5 150.6 75.6 145.2Q71.9 150.2 69 144.8Q65.3 149.7 62.4 144.3Q57.4 140.7 62.8 137.7Q57.9 134.1 63.3 131.1Q58.4 127.5 63.8 124.6Q58.8 120.9 64.2 118Q59.3 114.3 64.7 111.4z" fill="#c98a2a"/>
    <path d="M77.5 117.9L84 118.4Q91.6 118.9 91.1 126.5L90.6 133Q90.1 140.6 82.5 140.1L76 139.6Q68.4 139.1 68.9 131.5L69.4 125Q69.9 117.4 77.5 117.9z" fill="#f6dc98"/>
    <ellipse cx="75.8" cy="124.1" rx="4.1" ry="2.2" transform="rotate(-41 75.8 124.1)" fill="#fff6d8"/>
    <path d="M44 163h72v3H44z" fill="#15803d"/>
  </g>
</svg>
